<?xml version="1.0" encoding="utf-8"?>
<!-- Svg Vector Icons : http://www.onlinewebfonts.com/icon -->
<!DOCTYPE svg PUBLIC "-//W3C//DTD SVG 1.1//EN" "http://www.w3.org/Graphics/SVG/1.1/DTD/svg11.dtd">
<svg version="1.1" xmlns="http://www.w3.org/2000/svg" xmlns:xlink="http://www.w3.org/1999/xlink" x="0px" y="0px" viewBox="0 0 1000 1000" enable-background="new 0 0 1000 1000" xml:space="preserve">
<metadata> Svg Vector Icons : http://www.onlinewebfonts.com/icon </metadata>
<g><path d="M493.3,708.4l-17.3-16c-12.8-11.8-30.3-28-54.5-53.4c-16-16.7-71.8-77.2-120.1-152.9c-52.7-82.7-78-155.3-75.3-215.5c3.2-70.1,32.6-135.5,82.8-183.9c51-49.2,118.8-76.3,191-76.3c74.8,0,147.3,29.8,198.9,81.8c48.8,49.2,75.5,113.7,74.9,181.4c0,1.1-0.1,5.1-0.5,11.5c-0.6,9.5-1.9,19.3-3.7,29.2c-5.9,34.3-20.3,87.2-55.2,144.4c-18.3,30.1-43.7,64.1-75.5,101.2c-26.8,33.3-54.6,63.1-78.4,84.3c-13.1,13-21.5,21-22.4,21.9L493.3,708.4L493.3,708.4z M500,55.1c-60.5,0-117.3,22.6-159.9,63.8c-41.9,40.5-66.5,95.1-69.2,153.8c-2.3,50.9,20.7,114.6,68.3,189.4c46,72.3,99.4,130,114.7,146c15.7,16.5,28.6,29,39.1,38.9l14.3-13.6c0.4-0.4,8.9-8.4,22-21.5l1-0.9c22.1-19.6,48.4-47.8,73.9-79.6l0.4-0.5c30.3-35.3,54.4-67.5,71.5-95.6c31.3-51.3,44.1-98.4,49.3-128.9l0.1-0.4c1.6-8.2,2.6-16.2,3.1-24l0-0.3c0.4-5.4,0.4-8.4,0.4-8.6c0.4-55.8-21.6-108.9-62-149.6C623.9,80.1,563,55.1,500,55.1L500,55.1z M500,379.7c-62.3,0-113-49-113-109.3c0-60.3,50.7-109.3,113-109.3s113,49,113,109.3C612.9,330.6,562.3,379.7,500,379.7L500,379.7z M500,205.8c-37.6,0-68.2,29-68.2,64.6c0,35.6,30.6,64.6,68.2,64.6c37.6,0,68.2-29,68.2-64.6C568.2,234.8,537.6,205.8,500,205.8L500,205.8z M975.9,308L826,360.8l13.7,42.8l105.5-37.2l0,491.5l-296.9,77.5l-312.6-84L54.8,918.7V439.2l109-73.4l-29.7-33.6L10,414l0,0h0v556.3h44.8v0l280.3-69.3l312.8,88.6l342-98.6h0.1V344.9L975.9,308z"/></g>
</svg>