<?xml version="1.0" encoding="UTF-8" standalone="no"?>
<svg
   xmlns:dc="http://purl.org/dc/elements/1.1/"
   xmlns:cc="http://creativecommons.org/ns#"
   xmlns:rdf="http://www.w3.org/1999/02/22-rdf-syntax-ns#"
   xmlns:svg="http://www.w3.org/2000/svg"
   xmlns="http://www.w3.org/2000/svg"
   xmlns:sodipodi="http://sodipodi.sourceforge.net/DTD/sodipodi-0.dtd"
   xmlns:inkscape="http://www.inkscape.org/namespaces/inkscape"
   width="22.414"
   height="22.414"
   viewBox="0 0 22.414 22.414"
   version="1.1"
   id="svg5"
   sodipodi:docname="search.svg"
   inkscape:version="1.0.2-2 (e86c870879, 2021-01-15)">
  <metadata
     id="metadata11">
    <rdf:RDF>
      <cc:Work
         rdf:about="">
        <dc:format>image/svg+xml</dc:format>
        <dc:type
           rdf:resource="http://purl.org/dc/dcmitype/StillImage" />
      </cc:Work>
    </rdf:RDF>
  </metadata>
  <defs
     id="defs9" />
  <sodipodi:namedview
     pagecolor="#ffffff"
     bordercolor="#666666"
     borderopacity="1"
     objecttolerance="10"
     gridtolerance="10"
     guidetolerance="10"
     inkscape:pageopacity="0"
     inkscape:pageshadow="2"
     inkscape:window-width="1276"
     inkscape:window-height="771"
     id="namedview7"
     showgrid="false"
     inkscape:zoom="22.627417"
     inkscape:cx="8.5409443"
     inkscape:cy="12.817115"
     inkscape:window-x="286"
     inkscape:window-y="195"
     inkscape:window-maximized="0"
     inkscape:current-layer="svg5" />
  <g
     id="Icon_feather-search"
     data-name="Icon feather-search"
     transform="matrix(0.96586556,0,0,0.96586556,-2.4969891,-2.6734226)"
     opacity="0.5">
    <path
       id="Path_1"
       data-name="Path 1"
       d="M 23.131,13.815 A 9.315,9.315 0 1 1 13.815,4.5 a 9.315,9.315 0 0 1 9.316,9.315 z"
       fill="none"
       stroke="#0c9869"
       stroke-linecap="round"
       stroke-linejoin="round"
       stroke-width="2" />
    <path
       id="Path_2"
       data-name="Path 2"
       d="M 29.081,29.081 24.975,24.975"
       transform="translate(-4.581,-4.581)"
       fill="none"
       stroke="#0c9869"
       stroke-linecap="round"
       stroke-linejoin="round"
       stroke-width="2" />
  </g>
  <path
     style="fill:#ffccaa;stroke-width:0.0441942"
     d="M 10.586738,0.64852506 C 7.4071596,0.68537109 4.3147328,2.3990236 2.5464605,5.0342761 0.87605591,7.4672812 0.35988187,10.654582 1.2143827,13.483309 c 0.758011,2.602922 2.6070687,4.868267 5.0268245,6.099485 2.7691283,1.464141 6.2395858,1.489027 9.0374608,0.08525 0.671696,-0.326763 1.310448,-0.72374 1.888945,-1.197098 1.178023,1.149132 2.29987,2.360069 3.534929,3.44844 0.544878,0.275408 1.289173,-0.02734 1.455214,-0.625278 0.13145,-0.369231 0.0026,-0.786269 -0.302798,-1.029626 -1.043005,-1.11191 -2.140638,-2.170858 -3.212365,-3.254792 1.384364,-1.76927 2.262578,-3.98258 2.222397,-6.247175 C 20.94917,7.9374604 19.681554,5.1356377 17.591703,3.249926 15.711692,1.5165072 13.144946,0.55343938 10.586738,0.64852506 Z m 0.253166,2.07609034 c 2.502358,-0.021446 4.966116,1.2328211 6.422657,3.258112 1.080576,1.4713637 1.625982,3.3186072 1.507333,5.1325816 -0.101068,2.762834 -1.817707,5.371038 -4.275541,6.608145 -1.229866,0.626579 -2.619837,0.951251 -3.998355,0.890159 C 8.3531544,18.517227 6.2355641,17.517473 4.8382065,15.864024 3.5907191,14.410021 2.8650964,12.521382 2.9161136,10.612671 2.8845166,8.9705226 3.4592804,7.337281 4.4114649,6.0029254 5.8726477,3.9602867 8.3374562,2.7197012 10.839904,2.7246154 Z"
     id="path39" />
</svg>
